<svg width="350" height="66" viewBox="0 0 350 66" fill="none" xmlns="http://www.w3.org/2000/svg">
<path d="M12.7874 35.0299L34.6264 64.1736H50.431L28.8793 35.0299L51.5805 4.30695H35.4885L12.7874 35.0299ZM13.0747 4.30695H0V64.1736H13.0747V4.30695ZM66.6667 65.1786C79.7414 65.1786 90.3736 54.5548 90.3736 41.4903C90.3736 28.4259 79.7414 17.8021 66.6667 17.8021C53.592 17.8021 42.9598 28.4259 42.9598 41.4903C42.9598 54.5548 53.592 65.1786 66.6667 65.1786ZM66.6667 52.2577C60.7759 52.2577 55.8908 47.5201 55.8908 41.6339C55.8908 35.7477 60.6322 31.0101 66.6667 31.0101C72.7012 31.0101 77.4425 35.7477 77.4425 41.6339C77.4425 47.5201 72.7012 52.2577 66.6667 52.2577ZM105.747 64.1736V0H92.6724V64.1736H105.747ZM123.707 64.1736V0H110.632V64.1736H123.707ZM126.006 41.4903C126.006 54.5548 136.638 65.1786 149.713 65.1786C159.195 65.1786 167.385 59.5795 171.264 51.5399L159.483 46.0844C157.759 49.6735 154.023 52.2577 149.856 52.2577C147.845 52.2577 146.121 51.6834 144.397 50.8221L172.27 34.0249C169.109 24.5496 160.201 17.9456 149.856 17.9456C136.638 17.8021 126.006 28.4259 126.006 41.4903ZM139.08 42.2081V41.4903C139.08 35.6042 143.822 30.8665 149.856 30.8665C151.868 30.8665 153.736 31.4408 155.316 32.3022L139.08 42.2081ZM173.994 0V64.1736H187.069V42.0646L203.305 64.1736H219.397L203.017 42.3517L221.121 18.9506H205.029L186.925 42.0646V0H173.994ZM217.816 31.8715H224.569V64.1736H237.644V31.8715H244.397V18.807H237.644V4.30695H224.569V18.807H217.816V31.8715ZM259.77 14.3565V0H246.695V14.3565H259.77ZM259.77 64.1736V18.807H246.695V64.1736H259.77ZM284.052 45.223L274.425 18.9506H260.489L277.155 64.1736H291.092L307.615 18.807H293.678L284.052 45.223ZM325.287 47.2329L335.057 64.1736H350L332.615 34.3121L350 4.45052H335.057L325.144 21.5348L315.374 4.45052H300.431L317.816 34.3121L300.431 64.1736H315.374L325.287 47.2329Z" fill="black"/>
</svg>
