<svg width="264" height="62" viewBox="0 0 264 62" fill="none" xmlns="http://www.w3.org/2000/svg">
<g clip-path="url(#clip0_21274_276880)">
<path d="M49.554 69.8936H46.1544L-2.64062 -9.71143H0.759019L49.554 69.8936Z" fill="#0066FF"/>
<path d="M-2.64062 69.8936H0.772095L49.554 -9.71143H46.1413L-2.64062 69.8936Z" fill="#4F4F4F"/>
<path d="M64.4671 69.8936H60.8675L12.2725 -9.71143H15.6721L64.4671 69.8936Z" fill="#FF0000"/>
<path d="M12.2725 69.8936H15.6721L64.4671 -9.71143H61.0674L12.2725 69.8936Z" fill="#009444"/>
</g>
<path d="M104.452 39.5L102.772 35.9H92.788L91.108 39.5H86.788L94.804 22.7H100.756L108.772 39.5H104.452ZM94.372 32.492H101.188L97.78 25.196L94.372 32.492ZM126.774 39.5L121.422 33.788H117.39V39.5H113.262V22.7H122.478C123.726 22.7 124.822 22.796 125.766 22.988C126.71 23.164 127.55 23.46 128.286 23.876C129.038 24.276 129.606 24.844 129.99 25.58C130.39 26.316 130.59 27.204 130.59 28.244C130.59 30.884 129.262 32.58 126.606 33.332L132.414 39.5H126.774ZM117.39 26.324V30.164H122.238C123.726 30.164 124.79 30.02 125.43 29.732C126.07 29.428 126.39 28.932 126.39 28.244C126.39 27.556 126.07 27.068 125.43 26.78C124.79 26.476 123.726 26.324 122.238 26.324H117.39ZM144.998 36.164C146.614 36.164 148.134 35.948 149.558 35.516C150.982 35.068 152.15 34.412 153.062 33.548L153.038 38.324C150.99 39.476 148.31 40.052 144.998 40.052C143.638 40.052 142.358 39.868 141.158 39.5C139.974 39.132 138.902 38.596 137.942 37.892C136.998 37.188 136.246 36.252 135.686 35.084C135.126 33.916 134.846 32.596 134.846 31.124C134.846 29.172 135.318 27.508 136.262 26.132C137.222 24.74 138.446 23.732 139.934 23.108C141.438 22.468 143.126 22.148 144.998 22.148C148.262 22.148 150.942 22.724 153.038 23.876V28.58C150.958 26.724 148.278 25.796 144.998 25.796C143.126 25.796 141.662 26.276 140.606 27.236C139.566 28.18 139.046 29.476 139.046 31.124C139.046 32.708 139.574 33.948 140.63 34.844C141.702 35.724 143.158 36.164 144.998 36.164ZM174.65 22.7H178.778V39.5H174.65V32.684H162.914V39.5H158.786V22.7H162.914V29.06H174.65V22.7ZM186.153 22.7H190.281V39.5H186.153V22.7ZM210.996 22.7H215.316L207.78 39.5H201.828L194.292 22.7H198.612L204.804 36.836L210.996 22.7ZM236.461 26.324H223.453V29.18H235.933V32.492H223.453V35.852H236.461V39.5H219.325V22.7H236.461V26.324ZM256.571 39.5L251.219 33.788H247.187V39.5H243.059V22.7H252.275C253.523 22.7 254.619 22.796 255.563 22.988C256.507 23.164 257.347 23.46 258.083 23.876C258.835 24.276 259.403 24.844 259.787 25.58C260.187 26.316 260.387 27.204 260.387 28.244C260.387 30.884 259.059 32.58 256.403 33.332L262.211 39.5H256.571ZM247.187 26.324V30.164H252.035C253.523 30.164 254.587 30.02 255.227 29.732C255.867 29.428 256.187 28.932 256.187 28.244C256.187 27.556 255.867 27.068 255.227 26.78C254.587 26.476 253.523 26.324 252.035 26.324H247.187Z" fill="white"/>
<defs>
<clipPath id="clip0_21274_276880">
<rect x="0.5" width="66" height="62" rx="31" fill="white"/>
</clipPath>
</defs>
</svg>
