<svg width="239" height="45" viewBox="0 0 239 45" fill="none" xmlns="http://www.w3.org/2000/svg">
<path d="M32.6535 44.9405H30.7737L3.79297 0.603516H5.67277L32.6535 44.9405Z" fill="#0066FF"/>
<path d="M3.79297 44.9405H5.68L32.6535 0.603516H30.7665L3.79297 44.9405Z" fill="#4F4F4F"/>
<path d="M40.8996 44.9405H38.9092L12.0391 0.603516H13.9189L40.8996 44.9405Z" fill="#FF0000"/>
<path d="M12.0391 44.9405H13.9189L40.8996 0.603516H39.0198L12.0391 44.9405Z" fill="#009444"/>
<path d="M79.952 31.5L78.272 27.9H68.288L66.608 31.5H62.288L70.304 14.7H76.256L84.272 31.5H79.952ZM69.872 24.492H76.688L73.28 17.196L69.872 24.492ZM102.274 31.5L96.9223 25.788H92.8903V31.5H88.7623V14.7H97.9783C99.2263 14.7 100.322 14.796 101.266 14.988C102.21 15.164 103.05 15.46 103.786 15.876C104.538 16.276 105.106 16.844 105.49 17.58C105.89 18.316 106.09 19.204 106.09 20.244C106.09 22.884 104.762 24.58 102.106 25.332L107.914 31.5H102.274ZM92.8903 18.324V22.164H97.7383C99.2263 22.164 100.29 22.02 100.93 21.732C101.57 21.428 101.89 20.932 101.89 20.244C101.89 19.556 101.57 19.068 100.93 18.78C100.29 18.476 99.2263 18.324 97.7383 18.324H92.8903ZM120.498 28.164C122.114 28.164 123.634 27.948 125.058 27.516C126.482 27.068 127.65 26.412 128.562 25.548L128.538 30.324C126.49 31.476 123.81 32.052 120.498 32.052C119.138 32.052 117.858 31.868 116.658 31.5C115.474 31.132 114.402 30.596 113.442 29.892C112.498 29.188 111.746 28.252 111.186 27.084C110.626 25.916 110.346 24.596 110.346 23.124C110.346 21.172 110.818 19.508 111.762 18.132C112.722 16.74 113.946 15.732 115.434 15.108C116.938 14.468 118.626 14.148 120.498 14.148C123.762 14.148 126.442 14.724 128.538 15.876V20.58C126.458 18.724 123.778 17.796 120.498 17.796C118.626 17.796 117.162 18.276 116.106 19.236C115.066 20.18 114.546 21.476 114.546 23.124C114.546 24.708 115.074 25.948 116.13 26.844C117.202 27.724 118.658 28.164 120.498 28.164ZM150.15 14.7H154.278V31.5H150.15V24.684H138.414V31.5H134.286V14.7H138.414V21.06H150.15V14.7ZM161.653 14.7H165.781V31.5H161.653V14.7ZM186.496 14.7H190.816L183.28 31.5H177.328L169.792 14.7H174.112L180.304 28.836L186.496 14.7ZM211.961 18.324H198.953V21.18H211.433V24.492H198.953V27.852H211.961V31.5H194.825V14.7H211.961V18.324ZM232.071 31.5L226.719 25.788H222.687V31.5H218.559V14.7H227.775C229.023 14.7 230.119 14.796 231.063 14.988C232.007 15.164 232.847 15.46 233.583 15.876C234.335 16.276 234.903 16.844 235.287 17.58C235.687 18.316 235.887 19.204 235.887 20.244C235.887 22.884 234.559 24.58 231.903 25.332L237.711 31.5H232.071ZM222.687 18.324V22.164H227.535C229.023 22.164 230.087 22.02 230.727 21.732C231.367 21.428 231.687 20.932 231.687 20.244C231.687 19.556 231.367 19.068 230.727 18.78C230.087 18.476 229.023 18.324 227.535 18.324H222.687Z" fill="#1A1A1A"/>
</svg>
