<?xml version="1.0" encoding="UTF-8"?>
<svg width="124px" height="134px" viewBox="0 0 124 134" version="1.1" xmlns="http://www.w3.org/2000/svg" xmlns:xlink="http://www.w3.org/1999/xlink">
    <!-- Generator: Sketch 52.6 (67491) - http://www.bohemiancoding.com/sketch -->
    <title>Combined Shape</title>
    <desc>Created with Sketch.</desc>
    <g id="Page-1" stroke="none" stroke-width="1" fill="none" fill-rule="evenodd">
        <g id="Desktop-HD" transform="translate(-407.000000, -455.000000)" fill="#0B00B1" fill-rule="nonzero">
            <g id="Group" transform="translate(407.000000, 455.000000)">
                <path d="M5.49459536e-14,35.3789681 C5.49459536e-14,8.2000451 29.1334985,-8.83081545 52.4564564,4.79929252 L79.5061051,20.6073725 L106.545654,36.4188397 C129.818115,50.0286245 129.818115,83.9751806 106.545654,97.5849654 L79.5027387,113.396433 L52.4530899,129.2079 C29.1233991,142.824459 7.10542736e-15,125.796986 7.10542736e-15,98.6146753 L7.10542736e-15,35.3789681 Z M20.1685682,98.6146753 C20.1685682,110.198912 32.4898768,117.400107 42.3233583,111.65541 L69.3730071,95.8473298 L96.4091899,80.0392499 C106.299902,74.2539058 106.299902,59.7498993 96.4091899,53.9645552 L69.3730071,38.1564752 L42.3267248,22.3483952 C32.4898768,16.6003105 20.1685682,23.8015057 20.1685682,35.3789681 L20.1685682,98.6180625 L20.1685682,98.6146753 Z" id="Combined-Shape"></path>
            </g>
        </g>
    </g>
</svg>