<?xml version="1.0" encoding="UTF-8"?>
<svg width="26px" height="28px" viewBox="0 0 26 28" version="1.1" xmlns="http://www.w3.org/2000/svg" xmlns:xlink="http://www.w3.org/1999/xlink">
    <!-- Generator: Sketch 52.6 (67491) - http://www.bohemiancoding.com/sketch -->
    <title>Shape</title>
    <desc>Created with Sketch.</desc>
    <g id="Page-1" stroke="none" stroke-width="1" fill="none" fill-rule="evenodd">
        <g id="delete" transform="translate(-3.000000, 0.000000)" fill="#000000" fill-rule="nonzero">
            <path d="M5.3,12 L6.8,25.4 C7,26.9 8.3,28 9.8,28 L22.2,28 C23.7,28 25,26.9 25.2,25.4 L26.7,12 L5.3,12 Z M14,24.5 C14,25.1 13.6,25.5 13,25.5 C12.4,25.5 12,25.1 12,24.5 L12,15.5 C12,14.9 12.4,14.5 13,14.5 C13.6,14.5 14,14.9 14,15.5 L14,24.5 Z M20,24.5 C20,25.1 19.6,25.5 19,25.5 C18.4,25.5 18,25.1 18,24.5 L18,15.5 C18,14.9 18.4,14.5 19,14.5 C19.6,14.5 20,14.9 20,15.5 L20,24.5 Z M26,4 L22,4 L22,3 C22,1.3 20.7,0 19,0 L13,0 C11.3,0 10,1.3 10,3 L10,4 L6,4 C4.3,4 3,5.3 3,7 C3,8.7 4.3,10 6,10 L26,10 C27.7,10 29,8.7 29,7 C29,5.3 27.7,4 26,4 Z M12,3 C12,2.4 12.4,2 13,2 L19,2 C19.6,2 20,2.4 20,3 L20,4 L12,4 L12,3 Z" id="Shape"></path>
        </g>
    </g>
</svg>