<svg width="874" height="130" viewBox="0 0 874 130" fill="none" xmlns="http://www.w3.org/2000/svg">
<rect y="43.0784" width="12.9235" height="43.0785" fill="url(#paint0_linear_26528_12294)"/>
<rect x="25.8467" width="12.9235" height="129.235" fill="url(#paint1_linear_26528_12294)"/>
<rect x="51.6943" y="25.8472" width="12.9235" height="77.5413" fill="url(#paint2_linear_26528_12294)"/>
<rect x="77.541" width="12.9235" height="129.235" fill="url(#paint3_linear_26528_12294)"/>
<path d="M136.072 95.1177V32.8177H166.866C182.619 32.8177 192.32 41.5397 192.32 55.6907C192.32 63.9677 189.027 70.3757 183.153 74.2917L193.566 95.1177H169.892L162.505 78.5637H157.432V95.1177H136.072ZM157.076 62.7217H163.395C168.112 62.7217 170.782 60.3187 170.782 56.0467C170.782 51.6857 168.112 49.3717 163.395 49.3717H157.076V62.7217ZM201.866 95.1177V32.8177H246.722V48.7487H222.781V55.9577H244.408V71.4437H222.781V78.9197H247.612V95.1177H201.866ZM273.708 95.1177L251.369 32.8177H274.331L280.294 52.1307L284.744 67.0827H285.1L289.639 52.1307L295.602 32.8177H318.475L296.136 95.1177H273.708ZM324.328 95.1177V32.8177H345.866V95.1177H324.328ZM357.007 95.1177V32.8177H391.094C403.91 32.8177 411.831 39.1367 411.831 49.4607C411.831 55.6907 408.983 60.6747 404.088 63.5227C409.873 66.0147 413.611 71.4437 413.611 78.1187C413.611 88.2647 405.067 95.1177 392.607 95.1177H357.007ZM377.744 80.4327H386.466C390.026 80.4327 392.073 78.6527 392.073 75.5377C392.073 72.3337 390.026 70.5537 386.466 70.5537H377.744V80.4327ZM377.744 56.9367H385.309C388.78 56.9367 390.738 55.1567 390.738 52.1307C390.738 49.0157 388.78 47.3247 385.309 47.3247H377.744V56.9367ZM421.324 95.1177V32.8177H466.18V48.7487H442.239V55.9577H463.866V71.4437H442.239V78.9197H467.07V95.1177H421.324ZM476.167 95.1177V32.8177H504.202C524.85 32.8177 538.289 45.0997 538.289 63.9677C538.289 82.8357 524.85 95.1177 504.202 95.1177H476.167ZM497.438 76.1607H503.579C511.589 76.1607 516.573 71.5327 516.573 63.9677C516.573 56.3137 511.589 51.7747 503.579 51.7747H497.438V76.1607ZM575.51 95.1177V52.3087H557.443V32.8177H615.115V52.3087H597.048V95.1177H575.51ZM652.117 96.4527C631.736 96.4527 617.674 83.0137 617.674 63.9677C617.674 44.9217 631.736 31.4827 652.117 31.4827C672.587 31.4827 686.649 44.9217 686.649 63.9677C686.649 83.0137 672.587 96.4527 652.117 96.4527ZM639.39 63.9677C639.39 71.6217 644.641 76.8727 652.117 76.8727C659.593 76.8727 664.933 71.6217 664.933 63.9677C664.933 56.3137 659.593 51.0627 652.117 51.0627C644.641 51.0627 639.39 56.3137 639.39 63.9677ZM725.821 96.4527C705.44 96.4527 691.378 83.0137 691.378 63.9677C691.378 44.9217 705.44 31.4827 725.821 31.4827C746.291 31.4827 760.353 44.9217 760.353 63.9677C760.353 83.0137 746.291 96.4527 725.821 96.4527ZM713.094 63.9677C713.094 71.6217 718.345 76.8727 725.821 76.8727C733.297 76.8727 738.637 71.6217 738.637 63.9677C738.637 56.3137 733.297 51.0627 725.821 51.0627C718.345 51.0627 713.094 56.3137 713.094 63.9677ZM768.285 95.1177V32.8177H789.823V75.4487H813.497V95.1177H768.285ZM844.368 96.4527C827.369 96.4527 817.49 88.3537 817.49 74.6477H838.049C838.049 78.6527 840.274 80.8777 844.279 80.8777C847.661 80.8777 849.708 79.4537 849.708 76.9617C849.708 73.9357 846.593 71.9777 839.473 70.8207C824.788 68.3287 817.935 62.0097 817.935 51.1517C817.935 38.9587 827.458 31.4827 843.122 31.4827C859.231 31.4827 869.288 39.6707 869.555 52.8427H849.441C849.441 48.9267 847.305 46.7907 843.478 46.7907C840.185 46.7907 838.138 48.3037 838.138 50.7067C838.138 53.5547 840.719 55.1567 848.284 56.5807C863.859 59.5177 870.712 65.5697 870.712 76.2497C870.712 88.9767 861.011 96.4527 844.368 96.4527Z" fill="white"/>
<defs>
<linearGradient id="paint0_linear_26528_12294" x1="6.46177" y1="43.0784" x2="6.46177" y2="86.1569" gradientUnits="userSpaceOnUse">
<stop stop-color="#FF3D00"/>
<stop offset="1" stop-color="#FF9900"/>
</linearGradient>
<linearGradient id="paint1_linear_26528_12294" x1="32.3085" y1="0" x2="32.3085" y2="129.235" gradientUnits="userSpaceOnUse">
<stop stop-color="#FF3D00"/>
<stop offset="1" stop-color="#FF9900"/>
</linearGradient>
<linearGradient id="paint2_linear_26528_12294" x1="58.1561" y1="25.8472" x2="58.1561" y2="103.388" gradientUnits="userSpaceOnUse">
<stop stop-color="#FF3D00"/>
<stop offset="1" stop-color="#FF9900"/>
</linearGradient>
<linearGradient id="paint3_linear_26528_12294" x1="84.0028" y1="0" x2="84.0028" y2="129.235" gradientUnits="userSpaceOnUse">
<stop stop-color="#FF3D00"/>
<stop offset="1" stop-color="#FF9900"/>
</linearGradient>
</defs>
</svg>
