<?xml version="1.0" encoding="UTF-8"?>
<svg width="90px" height="66px" viewBox="0 0 90 66" version="1.1" xmlns="http://www.w3.org/2000/svg" xmlns:xlink="http://www.w3.org/1999/xlink">
    <!-- Generator: Sketch 52.6 (67491) - http://www.bohemiancoding.com/sketch -->
    <title>noun_hide_3539712</title>
    <desc>Created with Sketch.</desc>
    <g id="Page-1" stroke="none" stroke-width="1" fill="none" fill-rule="evenodd">
        <g id="noun_hide_3539712" fill="#000000">
            <path d="M71.89154,14.59027 L61.31091,25.17072 C62.4931986,27.6115373 63.1052808,30.2891403 63.10091,33.00122 C63.0893543,42.9932926 54.9920725,51.0905922 45,51.10217 C42.2879452,51.1064905 39.6103728,50.4944107 37.16956,49.31217 L28.75909,57.7226 C33.8430887,60.1185232 39.3803269,61.4005369 45,61.48279 C67.16119,61.48279 85.61224,39.28162 89.63251,34.08136 C90.1224996,33.4446204 90.1224996,32.5578196 89.63251,31.92108 C84.5234822,25.3740903 78.5562216,19.544789 71.89154,14.59027 Z" id="Path"></path>
            <path d="M18.10846,51.41217 C19.18854,52.21228 20.30865,52.9823 21.46869,53.71234 L13.08826,62.093 C12.5812275,62.5960935 12.3820079,63.3319563 12.5659889,64.0221272 C12.7499698,64.7122982 13.2890474,65.251351 13.9792268,65.4353001 C14.6694063,65.6192492 15.4052599,65.4199957 15.90833,64.91294 L24.9989,55.82261 L68.53131,12.2901 L76.91174,3.90948 C77.6904449,3.13073917 77.6904158,1.86817993 76.911675,1.089475 C76.1329342,0.310770071 74.8703749,0.310799173 74.09167,1.08954 L65.0011,10.17987 C63.7811,9.49994 62.521,8.86987 61.24091,8.27987 C56.1569151,5.88393201 50.6196759,4.60190793 45,4.51965 C22.83881,4.51965 4.38776,26.72083 0.36749,31.92108 C-0.122499608,32.5578196 -0.122499608,33.4446204 0.36749,34.08136 C5.47651778,40.6283497 11.4437784,46.457651 18.10846,51.41217 Z M45,14.90027 C47.7120548,14.8959495 50.3896272,15.5080293 52.83044,16.69027 C54.068869,17.2820077 55.2335414,18.0170996 56.30054,18.88045 L30.87915,44.30182 C30.0180953,43.2368076 29.2831865,42.0757238 28.68909,40.84174 C25.9900505,35.2336996 26.3625664,28.6321289 29.6753684,23.363327 C32.9881704,18.094525 38.7762611,14.8980409 45,14.90027 Z" id="Shape" fill-rule="nonzero"></path>
        </g>
    </g>
</svg>