<svg width="264" height="62" viewBox="0 0 264 62" fill="none" xmlns="http://www.w3.org/2000/svg">
<path d="M90.452 39.5L88.772 35.9H78.788L77.108 39.5H72.788L80.804 22.7H86.756L94.772 39.5H90.452ZM80.372 32.492H87.188L83.78 25.196L80.372 32.492ZM112.774 39.5L107.422 33.788H103.39V39.5H99.262V22.7H108.478C109.726 22.7 110.822 22.796 111.766 22.988C112.71 23.164 113.55 23.46 114.286 23.876C115.038 24.276 115.606 24.844 115.99 25.58C116.39 26.316 116.59 27.204 116.59 28.244C116.59 30.884 115.262 32.58 112.606 33.332L118.414 39.5H112.774ZM103.39 26.324V30.164H108.238C109.726 30.164 110.79 30.02 111.43 29.732C112.07 29.428 112.39 28.932 112.39 28.244C112.39 27.556 112.07 27.068 111.43 26.78C110.79 26.476 109.726 26.324 108.238 26.324H103.39ZM130.998 36.164C132.614 36.164 134.134 35.948 135.558 35.516C136.982 35.068 138.15 34.412 139.062 33.548L139.038 38.324C136.99 39.476 134.31 40.052 130.998 40.052C129.638 40.052 128.358 39.868 127.158 39.5C125.974 39.132 124.902 38.596 123.942 37.892C122.998 37.188 122.246 36.252 121.686 35.084C121.126 33.916 120.846 32.596 120.846 31.124C120.846 29.172 121.318 27.508 122.262 26.132C123.222 24.74 124.446 23.732 125.934 23.108C127.438 22.468 129.126 22.148 130.998 22.148C134.262 22.148 136.942 22.724 139.038 23.876V28.58C136.958 26.724 134.278 25.796 130.998 25.796C129.126 25.796 127.662 26.276 126.606 27.236C125.566 28.18 125.046 29.476 125.046 31.124C125.046 32.708 125.574 33.948 126.63 34.844C127.702 35.724 129.158 36.164 130.998 36.164ZM160.65 22.7H164.778V39.5H160.65V32.684H148.914V39.5H144.786V22.7H148.914V29.06H160.65V22.7ZM172.153 22.7H176.281V39.5H172.153V22.7ZM196.996 22.7H201.316L193.78 39.5H187.828L180.292 22.7H184.612L190.804 36.836L196.996 22.7ZM222.461 26.324H209.453V29.18H221.933V32.492H209.453V35.852H222.461V39.5H205.325V22.7H222.461V26.324ZM242.571 39.5L237.219 33.788H233.187V39.5H229.059V22.7H238.275C239.523 22.7 240.619 22.796 241.563 22.988C242.507 23.164 243.347 23.46 244.083 23.876C244.835 24.276 245.403 24.844 245.787 25.58C246.187 26.316 246.387 27.204 246.387 28.244C246.387 30.884 245.059 32.58 242.403 33.332L248.211 39.5H242.571ZM233.187 26.324V30.164H238.035C239.523 30.164 240.587 30.02 241.227 29.732C241.867 29.428 242.187 28.932 242.187 28.244C242.187 27.556 241.867 27.068 241.227 26.78C240.587 26.476 239.523 26.324 238.035 26.324H233.187Z" fill="white"/>
<rect y="1" width="60" height="60" rx="30" fill="white"/>
<path d="M17 16H31.9969C34.5397 16 36.7358 16.4488 38.5851 17.3463C40.4634 18.2438 41.8937 19.5322 42.8762 21.2114C43.8875 22.8907 44.3932 24.8739 44.3932 27.1611C44.3932 29.1589 44.0031 30.9394 43.2229 32.5029C42.4716 34.0373 41.3736 35.2823 39.9288 36.2377L45 46.4H33.4706L29.8731 38.3223H27.4025V46.4H17V16ZM30.3065 30.592C31.4623 30.592 32.3437 30.317 32.9505 29.7669C33.5862 29.1878 33.904 28.3771 33.904 27.3349C33.904 26.2636 33.5862 25.453 32.9505 24.9029C32.3437 24.3528 31.4623 24.0777 30.3065 24.0777H27.2291V30.592H30.3065Z" fill="#1A1A1A"/>
</svg>
