<svg width="1046" height="111" viewBox="0 0 1046 111" fill="none" xmlns="http://www.w3.org/2000/svg">
<path d="M10.661 24.5481V86.47C10.661 87.9051 10.0994 89.2813 9.09972 90.2961C8.10006 91.3108 6.74422 91.8809 5.33049 91.8809C3.91676 91.8809 2.56092 91.3108 1.56126 90.2961C0.561603 89.2813 0 87.9051 0 86.47V24.5481C0 23.113 0.561603 21.7367 1.56126 20.722C2.56092 19.7073 3.91676 19.1372 5.33049 19.1372C6.74422 19.1372 8.10006 19.7073 9.09972 20.722C10.0994 21.7367 10.661 23.113 10.661 24.5481ZM35.1102 2.54388C33.6964 2.54388 32.3406 3.11396 31.3409 4.12869C30.3413 5.14343 29.7797 6.5197 29.7797 7.95475V103.045C29.7797 104.48 30.3413 105.857 31.3409 106.871C32.3406 107.886 33.6964 108.456 35.1102 108.456C36.5239 108.456 37.8797 107.886 38.8794 106.871C39.879 105.857 40.4407 104.48 40.4407 103.045V7.97279C40.4407 6.53774 39.879 5.16146 38.8794 4.14673C37.8797 3.13199 36.5239 2.56192 35.1102 2.56192V2.54388ZM64.8898 16.1937C63.4761 16.1937 62.1203 16.7638 61.1206 17.7785C60.121 18.7932 59.5593 20.1695 59.5593 21.6046V89.3955C59.5593 90.8305 60.121 92.2068 61.1206 93.2215C62.1203 94.2363 63.4761 94.8063 64.8898 94.8063C66.3036 94.8063 67.6594 94.2363 68.6591 93.2215C69.6587 92.2068 70.2203 90.8305 70.2203 89.3955V21.6226C70.2203 20.1875 69.6587 18.8113 68.6591 17.7965C67.6594 16.7818 66.3036 16.2117 64.8898 16.2117V16.1937ZM94.6695 27.8992C93.2558 27.8992 91.9 28.4693 90.9003 29.484C89.9006 30.4987 89.339 31.875 89.339 33.3101V77.6792C89.339 79.1142 89.9006 80.4905 90.9003 81.5052C91.9 82.5199 93.2558 83.09 94.6695 83.09C96.0832 83.09 97.4391 82.5199 98.4387 81.5052C99.4384 80.4905 100 79.1142 100 77.6792V33.3101C99.9953 31.8781 99.4316 30.5065 98.4325 29.4957C97.4333 28.4848 96.0802 27.9172 94.6695 27.9172V27.8992Z" fill="url(#paint0_linear_26550_37937)"/>
<path d="M164.647 20.0767H199.196C204.411 20.0767 208.93 20.6271 212.754 21.728C216.579 22.8 219.751 24.3644 222.271 26.4214C224.792 28.4784 226.661 30.9844 227.877 33.9395C229.123 36.8945 229.746 40.2407 229.746 43.978C229.746 46.4985 229.442 48.9032 228.833 51.1919C228.225 53.4517 227.284 55.5376 226.009 57.4497C224.763 59.3618 223.184 61.0711 221.272 62.5776C219.36 64.0552 217.115 65.2865 214.536 66.2715L229.312 88H212.45L199.674 68.7051H199.283L178.423 68.6616V88H164.647V20.0767ZM199.543 56.7544C202.151 56.7544 204.425 56.4502 206.366 55.8418C208.336 55.2334 209.973 54.3787 211.277 53.2778C212.61 52.1769 213.595 50.8442 214.232 49.2798C214.898 47.6864 215.231 45.9191 215.231 43.978C215.231 40.1828 213.928 37.2567 211.32 35.1997C208.713 33.1138 204.787 32.0708 199.543 32.0708H178.423V56.7544H199.543ZM235.814 62.1865C235.814 58.71 236.524 55.3927 237.944 52.2349C239.363 49.048 241.406 46.2378 244.071 43.8042C246.737 41.3706 249.996 39.4295 253.849 37.981C257.731 36.5324 262.135 35.8081 267.06 35.8081C271.956 35.8081 276.36 36.5469 280.271 38.0244C284.211 39.473 287.543 41.472 290.266 44.0215C293.018 46.571 295.119 49.5695 296.567 53.0171C298.045 56.4647 298.784 60.1585 298.784 64.0986C298.784 64.5911 298.769 65.1271 298.74 65.7065C298.74 66.257 298.711 66.764 298.653 67.2275H250.155C250.706 68.763 251.589 70.1681 252.806 71.4429C254.052 72.7176 255.602 73.8185 257.456 74.7456C259.31 75.6727 261.454 76.397 263.888 76.9185C266.321 77.411 269.016 77.6572 271.971 77.6572C274.926 77.6572 277.866 77.353 280.792 76.7446C283.719 76.1073 286.514 75.3105 289.18 74.3545L293.525 84.1758C291.845 84.958 290.136 85.6533 288.397 86.2617C286.688 86.8411 284.892 87.3337 283.009 87.7393C281.155 88.1159 279.199 88.4056 277.142 88.6084C275.114 88.8112 272.97 88.9126 270.71 88.9126C264.945 88.9126 259.89 88.2173 255.544 86.8267C251.198 85.436 247.562 83.5384 244.636 81.1338C241.71 78.7292 239.508 75.9045 238.031 72.6597C236.553 69.4149 235.814 65.9238 235.814 62.1865ZM285.138 57.189C284.675 55.7694 283.95 54.4512 282.965 53.2344C282.009 51.9886 280.807 50.9167 279.358 50.0186C277.91 49.0915 276.229 48.3672 274.317 47.8457C272.405 47.3242 270.305 47.0635 268.016 47.0635C265.582 47.0635 263.366 47.3387 261.367 47.8892C259.368 48.4396 257.615 49.1784 256.109 50.1055C254.602 51.0326 253.342 52.1045 252.328 53.3213C251.343 54.5381 250.619 55.8273 250.155 57.189H285.138ZM299.333 36.6772H314.239L327.58 67.5317L331.057 76.1797L334.533 67.5317L347.874 36.6772H362.78L338.488 88H323.625L299.333 36.6772ZM372.325 29.7241C371.05 29.7241 369.892 29.5503 368.849 29.2026C367.835 28.826 366.965 28.3335 366.241 27.7251C365.517 27.0877 364.952 26.3634 364.546 25.5522C364.17 24.7121 363.981 23.8285 363.981 22.9014C363.981 21.9453 364.17 21.0617 364.546 20.2505C364.952 19.4103 365.517 18.686 366.241 18.0776C366.965 17.4692 367.835 16.9912 368.849 16.6436C369.892 16.2669 371.05 16.0786 372.325 16.0786C373.629 16.0786 374.788 16.2669 375.802 16.6436C376.845 16.9912 377.728 17.4692 378.453 18.0776C379.177 18.686 379.727 19.4103 380.104 20.2505C380.51 21.0617 380.712 21.9453 380.712 22.9014C380.712 23.8285 380.51 24.7121 380.104 25.5522C379.727 26.3634 379.177 27.0877 378.453 27.7251C377.728 28.3335 376.845 28.826 375.802 29.2026C374.788 29.5503 373.629 29.7241 372.325 29.7241ZM365.893 36.7207H378.757V88H365.893V36.7207ZM388.693 15.9048H401.556V41.5444C402.686 40.7622 404.019 40.0234 405.554 39.3281C407.09 38.6328 408.741 38.0244 410.508 37.5029C412.275 36.9814 414.101 36.5758 415.984 36.2861C417.867 35.9674 419.75 35.8081 421.633 35.8081C425.979 35.8081 429.962 36.4455 433.584 37.7202C437.234 38.995 440.363 40.7912 442.971 43.1089C445.578 45.4266 447.606 48.2078 449.055 51.4526C450.532 54.6685 451.271 58.2319 451.271 62.1431C451.271 66.228 450.503 69.9219 448.968 73.2246C447.432 76.4984 445.303 79.3086 442.58 81.6553C439.885 83.973 436.669 85.7692 432.932 87.0439C429.224 88.2897 425.197 88.9126 420.851 88.9126C418.997 88.9126 417.157 88.7967 415.332 88.5649C413.536 88.3332 411.797 88.0145 410.117 87.6089C408.466 87.2033 406.901 86.7253 405.424 86.1748C403.975 85.5954 402.686 84.9725 401.556 84.3062V88H388.693V15.9048ZM401.556 71.8774C402.86 72.9204 404.236 73.804 405.684 74.5283C407.133 75.2526 408.611 75.8465 410.117 76.3101C411.624 76.7736 413.145 77.1213 414.68 77.353C416.216 77.5558 417.708 77.6572 419.156 77.6572C422.111 77.6572 424.733 77.2661 427.022 76.4839C429.34 75.6727 431.281 74.5718 432.845 73.1812C434.439 71.7905 435.655 70.1536 436.496 68.2705C437.336 66.3874 437.756 64.3449 437.756 62.1431C437.756 60.0861 437.336 58.145 436.496 56.3198C435.684 54.4946 434.497 52.9012 432.932 51.5396C431.397 50.1489 429.528 49.0625 427.326 48.2803C425.153 47.4691 422.705 47.0635 419.982 47.0635C418.244 47.0635 416.505 47.2373 414.767 47.585C413.029 47.9036 411.348 48.3672 409.726 48.9756C408.133 49.584 406.626 50.3228 405.206 51.1919C403.816 52.061 402.599 53.0316 401.556 54.1035V71.8774ZM454.515 62.1865C454.515 58.71 455.224 55.3927 456.644 52.2349C458.064 49.048 460.106 46.2378 462.771 43.8042C465.437 41.3706 468.696 39.4295 472.549 37.981C476.431 36.5324 480.835 35.8081 485.76 35.8081C490.656 35.8081 495.06 36.5469 498.971 38.0244C502.911 39.473 506.243 41.472 508.966 44.0215C511.718 46.571 513.819 49.5695 515.267 53.0171C516.745 56.4647 517.484 60.1585 517.484 64.0986C517.484 64.5911 517.469 65.1271 517.44 65.7065C517.44 66.257 517.411 66.764 517.353 67.2275H468.855C469.406 68.763 470.289 70.1681 471.506 71.4429C472.752 72.7176 474.302 73.8185 476.156 74.7456C478.01 75.6727 480.154 76.397 482.588 76.9185C485.021 77.411 487.716 77.6572 490.671 77.6572C493.626 77.6572 496.566 77.353 499.493 76.7446C502.419 76.1073 505.214 75.3105 507.88 74.3545L512.225 84.1758C510.545 84.958 508.836 85.6533 507.098 86.2617C505.388 86.8411 503.592 87.3337 501.709 87.7393C499.855 88.1159 497.899 88.4056 495.842 88.6084C493.814 88.8112 491.67 88.9126 489.411 88.9126C483.645 88.9126 478.59 88.2173 474.244 86.8267C469.898 85.436 466.262 83.5384 463.336 81.1338C460.41 78.7292 458.208 75.9045 456.731 72.6597C455.253 69.4149 454.515 65.9238 454.515 62.1865ZM503.838 57.189C503.375 55.7694 502.65 54.4512 501.665 53.2344C500.709 51.9886 499.507 50.9167 498.059 50.0186C496.61 49.0915 494.93 48.3672 493.017 47.8457C491.105 47.3242 489.005 47.0635 486.716 47.0635C484.283 47.0635 482.066 47.3387 480.067 47.8892C478.068 48.4396 476.316 49.1784 474.809 50.1055C473.302 51.0326 472.042 52.1045 471.028 53.3213C470.043 54.5381 469.319 55.8273 468.855 57.189H503.838ZM521.162 62.5776C521.162 58.4927 521.93 54.8133 523.465 51.5396C525.001 48.2368 527.116 45.4266 529.81 43.1089C532.533 40.7622 535.749 38.966 539.457 37.7202C543.195 36.4455 547.236 35.8081 551.582 35.8081C553.436 35.8081 555.261 35.924 557.057 36.1558C558.883 36.3875 560.621 36.7062 562.272 37.1118C563.953 37.5174 565.517 38.0099 566.966 38.5894C568.443 39.1398 569.747 39.7482 570.877 40.4146V15.9048H583.74V88H570.877V83.1763C569.747 83.9585 568.414 84.6973 566.879 85.3926C565.343 86.0879 563.692 86.6963 561.925 87.2178C560.157 87.7393 558.318 88.1449 556.406 88.4346C554.523 88.7533 552.654 88.9126 550.8 88.9126C546.454 88.9126 542.456 88.2752 538.806 87.0005C535.184 85.7257 532.07 83.9295 529.462 81.6118C526.855 79.2941 524.812 76.5273 523.335 73.3115C521.886 70.0667 521.162 66.4888 521.162 62.5776ZM534.677 62.5776C534.677 64.6346 535.083 66.5757 535.894 68.4009C536.734 70.2261 537.922 71.834 539.457 73.2246C541.022 74.5863 542.891 75.6727 545.063 76.4839C547.265 77.2661 549.728 77.6572 552.451 77.6572C554.189 77.6572 555.928 77.4979 557.666 77.1792C559.404 76.8315 561.07 76.3535 562.663 75.7451C564.286 75.1367 565.792 74.3979 567.183 73.5288C568.603 72.6597 569.834 71.6891 570.877 70.6172V52.8433C569.573 51.8003 568.197 50.9167 566.748 50.1924C565.3 49.4681 563.822 48.8742 562.316 48.4106C560.809 47.9471 559.288 47.6139 557.753 47.4111C556.217 47.1794 554.725 47.0635 553.277 47.0635C550.322 47.0635 547.685 47.4691 545.368 48.2803C543.079 49.0625 541.138 50.1489 539.544 51.5396C537.98 52.9302 536.778 54.5671 535.937 56.4502C535.097 58.3333 534.677 60.3758 534.677 62.5776ZM641.376 20.0767H655.978L688.831 88H674.36L668.928 76.5708H629.252L623.993 88H609.479L641.376 20.0767ZM663.496 65.2285L648.807 34.374L634.51 65.2285H663.496ZM691.554 36.7207H704.417V44.1084C707.256 41.9935 710.255 40.1683 713.412 38.6328C716.57 37.0973 719.714 35.924 722.843 35.1128L726.623 46.8896C721.669 47.3822 717.309 48.4976 713.543 50.2358C709.805 51.9451 706.763 54.3643 704.417 57.4932V88H691.554V36.7207ZM726.912 62.4907C726.912 58.7244 727.593 55.2189 728.954 51.9741C730.345 48.7004 732.359 45.8757 734.995 43.5C737.66 41.0954 740.905 39.2122 744.729 37.8506C748.582 36.4889 752.972 35.8081 757.897 35.8081C760.041 35.8081 762.199 35.9385 764.372 36.1992C766.545 36.46 768.631 36.8366 770.63 37.3291C772.658 37.7926 774.555 38.3576 776.323 39.0239C778.09 39.6613 779.625 40.3711 780.929 41.1533L774.975 50.8442C772.165 49.5405 769.5 48.5845 766.979 47.9761C764.488 47.3677 761.953 47.0635 759.374 47.0635C756.419 47.0635 753.768 47.4546 751.422 48.2368C749.075 48.9901 747.076 50.062 745.425 51.4526C743.802 52.8143 742.556 54.4367 741.687 56.3198C740.847 58.174 740.427 60.202 740.427 62.4038C740.427 64.6056 740.876 66.6481 741.774 68.5312C742.701 70.3854 743.991 71.9933 745.642 73.355C747.322 74.6877 749.336 75.7451 751.682 76.5273C754.058 77.2806 756.694 77.6572 759.592 77.6572C762.778 77.6572 765.777 77.2082 768.587 76.3101C771.426 75.4119 774.063 74.2096 776.496 72.7031L782.45 82.394C780.915 83.3211 779.249 84.1903 777.452 85.0015C775.656 85.7837 773.73 86.4645 771.673 87.0439C769.645 87.6234 767.501 88.0724 765.241 88.3911C763.01 88.7388 760.693 88.9126 758.288 88.9126C753.392 88.9126 749.003 88.2463 745.12 86.9136C741.238 85.5809 737.95 83.7412 735.256 81.3945C732.561 79.0189 730.49 76.2231 729.041 73.0073C727.622 69.7915 726.912 66.286 726.912 62.4907ZM790.083 15.9482H802.946V40.6318C805.64 39.1543 808.639 37.981 811.942 37.1118C815.273 36.2427 818.764 35.8081 822.415 35.8081C826.645 35.8081 830.44 36.431 833.801 37.6768C837.19 38.9225 840.058 40.7188 842.405 43.0654C844.752 45.3831 846.548 48.2078 847.794 51.5396C849.068 54.8713 849.706 58.623 849.706 62.7949V88H836.886V63.3164C836.886 60.8828 836.495 58.6665 835.713 56.6675C834.93 54.6395 833.786 52.9012 832.28 51.4526C830.773 50.0041 828.933 48.8887 826.76 48.1064C824.617 47.2952 822.183 46.8896 819.46 46.8896C816.186 46.8896 813.144 47.4111 810.334 48.4541C807.524 49.4971 805.061 50.8153 802.946 52.4087V88H790.083V15.9482ZM864.683 29.7241C863.408 29.7241 862.249 29.5503 861.206 29.2026C860.192 28.826 859.323 28.3335 858.599 27.7251C857.875 27.0877 857.31 26.3634 856.904 25.5522C856.527 24.7121 856.339 23.8285 856.339 22.9014C856.339 21.9453 856.527 21.0617 856.904 20.2505C857.31 19.4103 857.875 18.686 858.599 18.0776C859.323 17.4692 860.192 16.9912 861.206 16.6436C862.249 16.2669 863.408 16.0786 864.683 16.0786C865.987 16.0786 867.145 16.2669 868.159 16.6436C869.202 16.9912 870.086 17.4692 870.81 18.0776C871.535 18.686 872.085 19.4103 872.462 20.2505C872.867 21.0617 873.07 21.9453 873.07 22.9014C873.07 23.8285 872.867 24.7121 872.462 25.5522C872.085 26.3634 871.535 27.0877 870.81 27.7251C870.086 28.3335 869.202 28.826 868.159 29.2026C867.145 29.5503 865.987 29.7241 864.683 29.7241ZM858.251 36.7207H871.115V88H858.251V36.7207ZM874.315 36.6772H889.22L902.562 67.5317L906.038 76.1797L909.515 67.5317L922.856 36.6772H937.762L913.469 88H898.607L874.315 36.6772ZM938.094 62.1865C938.094 58.71 938.804 55.3927 940.223 52.2349C941.643 49.048 943.685 46.2378 946.351 43.8042C949.016 41.3706 952.275 39.4295 956.129 37.981C960.011 36.5324 964.414 35.8081 969.34 35.8081C974.236 35.8081 978.639 36.5469 982.551 38.0244C986.491 39.473 989.822 41.472 992.546 44.0215C995.298 46.571 997.398 49.5695 998.847 53.0171C1000.32 56.4647 1001.06 60.1585 1001.06 64.0986C1001.06 64.5911 1001.05 65.1271 1001.02 65.7065C1001.02 66.257 1000.99 66.764 1000.93 67.2275H952.435C952.985 68.763 953.869 70.1681 955.086 71.4429C956.331 72.7176 957.881 73.8185 959.736 74.7456C961.59 75.6727 963.734 76.397 966.167 76.9185C968.601 77.411 971.295 77.6572 974.25 77.6572C977.205 77.6572 980.146 77.353 983.072 76.7446C985.998 76.1073 988.794 75.3105 991.459 74.3545L995.805 84.1758C994.125 84.958 992.415 85.6533 990.677 86.2617C988.968 86.8411 987.171 87.3337 985.288 87.7393C983.434 88.1159 981.479 88.4056 979.422 88.6084C977.394 88.8112 975.25 88.9126 972.99 88.9126C967.225 88.9126 962.169 88.2173 957.823 86.8267C953.478 85.436 949.842 83.5384 946.916 81.1338C943.99 78.7292 941.788 75.9045 940.31 72.6597C938.833 69.4149 938.094 65.9238 938.094 62.1865ZM987.418 57.189C986.954 55.7694 986.23 54.4512 985.245 53.2344C984.289 51.9886 983.087 50.9167 981.638 50.0186C980.189 49.0915 978.509 48.3672 976.597 47.8457C974.685 47.3242 972.584 47.0635 970.296 47.0635C967.862 47.0635 965.646 47.3387 963.647 47.8892C961.648 48.4396 959.895 49.1784 958.388 50.1055C956.882 51.0326 955.622 52.1045 954.608 53.3213C953.623 54.5381 952.898 55.8273 952.435 57.189H987.418ZM1008.7 36.7207H1021.56V44.1084C1024.4 41.9935 1027.4 40.1683 1030.55 38.6328C1033.71 37.0973 1036.86 35.924 1039.99 35.1128L1043.77 46.8896C1038.81 47.3822 1034.45 48.4976 1030.69 50.2358C1026.95 51.9451 1023.91 54.3643 1021.56 57.4932V88H1008.7V36.7207Z" fill="white"/>
<defs>
<linearGradient id="paint0_linear_26550_37937" x1="50" y1="14.9612" x2="0" y2="14.9612" gradientUnits="userSpaceOnUse">
<stop stop-color="white" stop-opacity="0.75"/>
<stop offset="1" stop-color="white" stop-opacity="0.35"/>
</linearGradient>
</defs>
</svg>
